<svg width="1962" height="1153" xmlns="http://www.w3.org/2000/svg" xmlns:xlink="http://www.w3.org/1999/xlink" xml:space="preserve" overflow="hidden"><defs><clipPath id="clip0"><rect x="1422" y="25054" width="1962" height="1153"/></clipPath></defs><g clip-path="url(#clip0)" transform="translate(-1422 -25054)"><rect x="1423" y="25055" width="1959" height="1150" fill="#FFFFFF"/><g><path d="M1543.5 25914.3 3332.5 25914.3M1543.5 25741.3 3332.5 25741.3M1543.5 25569.3 3332.5 25569.3M1543.5 25397.3 3332.5 25397.3M1543.5 25225.5 3332.5 25225.5" stroke="#D9D9D9" stroke-width="3.4375" stroke-linejoin="round" stroke-miterlimit="10" fill="none"/></g><g><path d="M1543.5 26086.5 3332.5 26086.5" stroke="#D9D9D9" stroke-width="3.4375" stroke-linejoin="round" stroke-miterlimit="10" fill="none" fill-rule="evenodd"/></g><g><path d="M1546 25661.8 1551.05 25278 1556.05 25281.8 1561.05 25337.8 1566.05 25367.8 1571.05 25396.8 1577.05 25433.8 1582.05 25468.8 1587.05 25507.8 1592.05 25571.8 1597.05 25688.8 1602.05 25777.8 1607.05 25834.8 1612.05 25867.8 1617.05 25927.9 1623.05 25980.9 1628.05 26001.9 1633.05 26009.9 1638.05 26023.9 1643.05 26028.9 1648.05 26032.9 1653.05 26030.9 1658.05 26023.9 1663.05 26030.9 1669.05 26032.9 1674.05 26034.9 1679.06 26037.9 1684.06 26035.9 1689.06 26040.9 1694.06 26042.9 1699.06 26044.9 1704.06 26048.9 1709.06 26047.9 1715.06 26050.9 1720.06 26052.9 1725.06 26052.9 1730.06 26050.9 1735.06 26050.9 1740.06 26053.9 1745.06 26052.9 1750.06 26058.9 1755.06 26052.9 1761.06 26055.9 1766.06 26056.9 1771.06 26056.9 1776.06 26060.9 1781.06 26057.9 1786.06 26060.9 1791.06 26059.9 1796.06 26061.9 1801.06 26059.9 1807.06 26060.9 1812.06 26064 1817.06 26062.9 1822.06 26060.9 1827.06 26063.9 1832.06 26061.9 1837.06 26062.9 1842.06 25791.8 1847.06 25539.8 1853.06 25771.8 1858.06 25876.8 1863.06 25953.9 1868.06 25936.9 1873.06 25963.9 1878.06 25982.9 1883.06 25980.9 1888.06 25982.9 1893.06 25998.9 1899.06 26010.9 1904.06 26007.9 1909.06 26008.9 1914.06 26001.9 1919.06 25992.9 1924.06 26006.9 1929.06 26010.9 1934.06 26021.9 1939.06 26025.9 1945.06 26009.9 1950.06 26008.9 1955.06 26004.9 1960.06 26015.9 1965.06 26019.9 1970.06 26019.9 1975.06 26022.9 1980.06 26015.9 1985.07 26021.9 1990.07 26033.9 1996.07 26029.9 2001.07 26014.9 2006.07 26015.9 2011.07 26032.9 2016.07 26021.9 2021.07 26024.9 2026.07 26025.9 2031.07 26021.9 2036.07 26021.9 2042.07 26023.9 2047.07 26028.9 2052.07 26020.9 2057.07 26029.9 2062.07 26025.9 2067.07 26020.9 2072.07 26029.9 2077.07 26033.9 2082.07 26029.9 2088.07 26037.9 2093.07 26023.9 2098.07 26013.9 2103.07 26032.9 2108.07 26027.9 2113.07 26035.9 2118.07 26034.9 2123.07 26037.9 2128.07 26034.9 2134.07 26027.9 2139.07 26025.9 2144.07 26032.9 2149.07 26038.9 2154.07 26025.9 2159.07 26024.9 2164.07 26030.9 2169.07 26032.9 2174.07 26033.9 2180.07 26026.9 2185.07 26038.9 2190.07 26036.9 2195.07 26028.9 2200.07 26031.9 2205.07 26039.9 2210.07 26034.9 2215.07 26043.9 2220.07 26030.9 2226.07 26039.9 2231.07 26028.9 2236.07 26036.9 2241.07 26036.9 2246.07 26026.9 2251.07 26037.9 2256.07 26039.9 2261.07 26036.9 2266.07 26034.9 2272.07 26043.9 2277.07 26038.9 2282.07 26039.9 2287.08 26038.9 2292.08 26042.9 2297.08 26032.9 2302.08 26045.9 2307.08 26030.9 2312.08 26040.9 2318.08 26035.9 2323.08 26033.9 2328.08 26040.9 2333.08 26038.9 2338.08 26037.9 2343.08 25791.8 2348.08 25676.8 2353.08 25815.8 2358.08 25873.8 2364.08 25954.9 2369.08 25952.9 2374.08 25959.9 2379.08 25975.9 2384.08 25954.9 2389.08 25989.9 2394.08 25985.9 2399.08 25978.9 2404.08 25988.9 2410.08 25979.9 2415.08 25986.9 2420.08 25979.9 2425.08 25988.9 2430.08 25988.9 2435.08 26001.9 2440.08 25985.9 2445.08 25999.9 2450.08 25994.9 2456.08 25999.9 2461.08 25987.9 2466.08 25989.9 2471.08 25990.9 2476.08 25995.9 2481.08 25993.9 2486.08 25995.9 2491.08 25999.9 2496.08 25995.9 2502.08 25999.9 2507.08 26004.9 2512.08 25997.9 2517.08 25938.9 2522.08 25917.8 2527.08 25947.9 2532.08 25956.9 2537.08 25959.9 2542.08 25966.9 2548.08 25977.9 2553.08 25985.9 2558.08 25983.9 2563.08 25998.9 2568.08 25937.9 2573.08 25969.9 2578.08 25970.9 2583.08 25981.9 2588.08 25993.9 2594.08 25931.9 2599.09 25974.9 2604.09 25972.9 2609.09 25981.9 2614.09 25987.9 2619.09 25991.9 2624.09 25956.9 2629.09 25972.9 2634.09 25959.9 2640.09 25984.9 2645.09 25982.9 2650.09 25964.9 2655.09 25985.9 2660.09 25977.9 2665.09 25991.9 2670.09 25984.9 2675.09 25967.9 2680.09 25979.9 2686.09 25984.9 2691.09 25975.9 2696.09 25959.9 2701.09 25977.9 2706.09 25986.9 2711.09 25966.9 2716.09 25968.9 2721.09 25973.9 2726.09 25964.9 2732.09 25966.9 2737.09 25969.9 2742.09 25946.9 2747.09 25951.9 2752.09 25955.9 2757.09 25965.9 2762.09 25940.9 2767.09 25941.9 2772.09 25971.9 2777.09 25939.9 2783.09 25938.9 2788.09 25933.9 2793.09 25926.9 2798.09 25921.8 2803.09 25941.9 2808.09 25930.9 2813.09 25923.8 2818.09 25916.8 2823.09 25905.8 2829.09 25919.8 2834.09 25920.8 2839.09 25922.8 2844.09 25883.8 2849.09 25896.8 2854.09 25883.8 2859.09 25896.8 2864.09 25894.8 2869.09 25881.8 2875.09 25893.8 2880.09 25905.8 2885.09 25886.8 2890.09 25903.8 2895.09 25862.8 2900.1 25892.8 2905.1 25860.8 2910.1 25875.8 2915.1 25864.8 2921.1 25865.8 2926.1 25880.8 2931.1 25842.8 2936.1 25850.8 2941.1 25856.8 2946.1 25853.8 2951.1 25872.8 2956.1 25877.8 2961.1 25868.8 2967.1 25849.8 2972.1 25851.8 2977.1 25862.8 2982.1 25863.8 2987.1 25875.8 2992.1 25888.8 2997.1 25863.8 3002.1 25888.8 3007.1 25868.8 3013.1 25892.8 3018.1 25883.8 3023.1 25903.8 3028.1 25900.8 3033.1 25929.9 3038.1 25916.8 3043.1 25914.8 3048.1 25920.8 3053.1 25932.9 3059.1 25939.9 3064.1 25929.9 3069.1 25940.9 3074.1 25933.9 3079.1 25928.9 3084.1 25941.9 3089.1 25963.9 3094.1 25955.9 3099.1 25953.9 3105.1 25942.9 3110.1 25968.9 3115.1 25948.9 3120.1 25963.9 3125.1 25953.9 3130.1 25951.9 3135.1 25940.9 3140.1 25940.9 3145.1 25954.9 3151.1 25977.9 3156.1 25961.9 3161.1 25968.9 3166.1 25985.9 3171.1 25976.9 3176.1 25948.9 3181.1 25962.9 3186.1 25965.9 3191.1 25955.9 3197.1 25956.9 3202.1 25959.9 3207.11 25991.9 3212.11 25963.9 3217.11 25970.9 3222.11 25968.9 3227.11 25986.9 3232.11 25982.9 3237.11 25981.9 3243.11 25973.9 3248.11 25989.9 3253.11 25990.9 3258.11 25981.9 3263.11 25977.9 3268.11 25987.9 3273.11 25991.9 3278.11 26003.9 3283.11 25996.9 3289.11 25996.9 3294.11 26003.9 3299.11 25993.9 3304.11 26004.9 3309.11 26007.9 3314.11 26007.9 3319.11 26014.9 3324.11 26007.9 3330 26018.9" stroke="#4472C4" stroke-width="10.3125" stroke-linecap="round" stroke-linejoin="round" stroke-miterlimit="10" fill="none"/></g><g><text fill="#595959" font-family="Calibri,Calibri_MSFontService,sans-serif" font-weight="400" font-size="41" transform="matrix(1 0 0 1 1484.22 26098)">0</text></g><g><text fill="#595959" font-family="Calibri,Calibri_MSFontService,sans-serif" font-weight="400" font-size="41" transform="matrix(1 0 0 1 1452.92 25925)">0.5</text></g><g><text fill="#595959" font-family="Calibri,Calibri_MSFontService,sans-serif" font-weight="400" font-size="41" transform="matrix(1 0 0 1 1484.22 25753)">1</text></g><g><text fill="#595959" font-family="Calibri,Calibri_MSFontService,sans-serif" font-weight="400" font-size="41" transform="matrix(1 0 0 1 1452.92 25581)">1.5</text></g><g><text fill="#595959" font-family="Calibri,Calibri_MSFontService,sans-serif" font-weight="400" font-size="41" transform="matrix(1 0 0 1 1484.22 25409)">2</text></g><g><text fill="#595959" font-family="Calibri,Calibri_MSFontService,sans-serif" font-weight="400" font-size="41" transform="matrix(1 0 0 1 1452.92 25237)">2.5</text></g><g><text fill="#595959" font-family="Calibri,Calibri_MSFontService,sans-serif" font-weight="400" font-size="41" transform="matrix(6.12323e-17 -1 1 6.12323e-17 1559.77 26133)">1</text></g><g><text fill="#595959" font-family="Calibri,Calibri_MSFontService,sans-serif" font-weight="400" font-size="41" transform="matrix(6.12323e-17 -1 1 6.12323e-17 1610.87 26154)">11</text></g><g><text fill="#595959" font-family="Calibri,Calibri_MSFontService,sans-serif" font-weight="400" font-size="41" transform="matrix(6.12323e-17 -1 1 6.12323e-17 1661.98 26154)">21</text></g><g><text fill="#595959" font-family="Calibri,Calibri_MSFontService,sans-serif" font-weight="400" font-size="41" transform="matrix(6.12323e-17 -1 1 6.12323e-17 1713.09 26154)">31</text></g><g><text fill="#595959" font-family="Calibri,Calibri_MSFontService,sans-serif" font-weight="400" font-size="41" transform="matrix(6.12323e-17 -1 1 6.12323e-17 1764.19 26154)">41</text></g><g><text fill="#595959" font-family="Calibri,Calibri_MSFontService,sans-serif" font-weight="400" font-size="41" transform="matrix(6.12323e-17 -1 1 6.12323e-17 1815.3 26154)">51</text></g><g><text fill="#595959" font-family="Calibri,Calibri_MSFontService,sans-serif" font-weight="400" font-size="41" transform="matrix(6.12323e-17 -1 1 6.12323e-17 1866.4 26154)">61</text></g><g><text fill="#595959" font-family="Calibri,Calibri_MSFontService,sans-serif" font-weight="400" font-size="41" transform="matrix(6.12323e-17 -1 1 6.12323e-17 1917.51 26154)">71</text></g><g><text fill="#595959" font-family="Calibri,Calibri_MSFontService,sans-serif" font-weight="400" font-size="41" transform="matrix(6.12323e-17 -1 1 6.12323e-17 1968.61 26154)">81</text></g><g><text fill="#595959" font-family="Calibri,Calibri_MSFontService,sans-serif" font-weight="400" font-size="41" transform="matrix(6.12323e-17 -1 1 6.12323e-17 2019.72 26154)">91</text></g><g><text fill="#595959" font-family="Calibri,Calibri_MSFontService,sans-serif" font-weight="400" font-size="41" transform="matrix(6.12323e-17 -1 1 6.12323e-17 2070.82 26175)">101</text></g><g><text fill="#595959" font-family="Calibri,Calibri_MSFontService,sans-serif" font-weight="400" font-size="41" transform="matrix(6.12323e-17 -1 1 6.12323e-17 2121.93 26175)">111</text></g><g><text fill="#595959" font-family="Calibri,Calibri_MSFontService,sans-serif" font-weight="400" font-size="41" transform="matrix(6.12323e-17 -1 1 6.12323e-17 2173.04 26175)">121</text></g><g><text fill="#595959" font-family="Calibri,Calibri_MSFontService,sans-serif" font-weight="400" font-size="41" transform="matrix(6.12323e-17 -1 1 6.12323e-17 2224.14 26175)">131</text></g><g><text fill="#595959" font-family="Calibri,Calibri_MSFontService,sans-serif" font-weight="400" font-size="41" transform="matrix(6.12323e-17 -1 1 6.12323e-17 2275.25 26175)">141</text></g><g><text fill="#595959" font-family="Calibri,Calibri_MSFontService,sans-serif" font-weight="400" font-size="41" transform="matrix(6.12323e-17 -1 1 6.12323e-17 2326.35 26175)">151</text></g><g><text fill="#595959" font-family="Calibri,Calibri_MSFontService,sans-serif" font-weight="400" font-size="41" transform="matrix(6.12323e-17 -1 1 6.12323e-17 2377.46 26175)">161</text></g><g><text fill="#595959" font-family="Calibri,Calibri_MSFontService,sans-serif" font-weight="400" font-size="41" transform="matrix(6.12323e-17 -1 1 6.12323e-17 2428.56 26175)">171</text></g><g><text fill="#595959" font-family="Calibri,Calibri_MSFontService,sans-serif" font-weight="400" font-size="41" transform="matrix(6.12323e-17 -1 1 6.12323e-17 2479.67 26175)">181</text></g><g><text fill="#595959" font-family="Calibri,Calibri_MSFontService,sans-serif" font-weight="400" font-size="41" transform="matrix(6.12323e-17 -1 1 6.12323e-17 2530.77 26175)">191</text></g><g><text fill="#595959" font-family="Calibri,Calibri_MSFontService,sans-serif" font-weight="400" font-size="41" transform="matrix(6.12323e-17 -1 1 6.12323e-17 2581.88 26175)">201</text></g><g><text fill="#595959" font-family="Calibri,Calibri_MSFontService,sans-serif" font-weight="400" font-size="41" transform="matrix(6.12323e-17 -1 1 6.12323e-17 2632.99 26175)">211</text></g><g><text fill="#595959" font-family="Calibri,Calibri_MSFontService,sans-serif" font-weight="400" font-size="41" transform="matrix(6.12323e-17 -1 1 6.12323e-17 2684.09 26175)">221</text></g><g><text fill="#595959" font-family="Calibri,Calibri_MSFontService,sans-serif" font-weight="400" font-size="41" transform="matrix(6.12323e-17 -1 1 6.12323e-17 2735.2 26175)">231</text></g><g><text fill="#595959" font-family="Calibri,Calibri_MSFontService,sans-serif" font-weight="400" font-size="41" transform="matrix(6.12323e-17 -1 1 6.12323e-17 2786.3 26175)">241</text></g><g><text fill="#595959" font-family="Calibri,Calibri_MSFontService,sans-serif" font-weight="400" font-size="41" transform="matrix(6.12323e-17 -1 1 6.12323e-17 2837.41 26175)">251</text></g><g><text fill="#595959" font-family="Calibri,Calibri_MSFontService,sans-serif" font-weight="400" font-size="41" transform="matrix(6.12323e-17 -1 1 6.12323e-17 2888.51 26175)">261</text></g><g><text fill="#595959" font-family="Calibri,Calibri_MSFontService,sans-serif" font-weight="400" font-size="41" transform="matrix(6.12323e-17 -1 1 6.12323e-17 2939.62 26175)">271</text></g><g><text fill="#595959" font-family="Calibri,Calibri_MSFontService,sans-serif" font-weight="400" font-size="41" transform="matrix(6.12323e-17 -1 1 6.12323e-17 2990.73 26175)">281</text></g><g><text fill="#595959" font-family="Calibri,Calibri_MSFontService,sans-serif" font-weight="400" font-size="41" transform="matrix(6.12323e-17 -1 1 6.12323e-17 3041.83 26175)">291</text></g><g><text fill="#595959" font-family="Calibri,Calibri_MSFontService,sans-serif" font-weight="400" font-size="41" transform="matrix(6.12323e-17 -1 1 6.12323e-17 3092.94 26175)">301</text></g><g><text fill="#595959" font-family="Calibri,Calibri_MSFontService,sans-serif" font-weight="400" font-size="41" transform="matrix(6.12323e-17 -1 1 6.12323e-17 3144.04 26175)">311</text></g><g><text fill="#595959" font-family="Calibri,Calibri_MSFontService,sans-serif" font-weight="400" font-size="41" transform="matrix(6.12323e-17 -1 1 6.12323e-17 3195.15 26175)">321</text></g><g><text fill="#595959" font-family="Calibri,Calibri_MSFontService,sans-serif" font-weight="400" font-size="41" transform="matrix(6.12323e-17 -1 1 6.12323e-17 3246.25 26175)">331</text></g><g><text fill="#595959" font-family="Calibri,Calibri_MSFontService,sans-serif" font-weight="400" font-size="41" transform="matrix(6.12323e-17 -1 1 6.12323e-17 3297.36 26175)">341</text></g><g><text fill="#595959" font-family="Calibri,Calibri_MSFontService,sans-serif" font-weight="400" font-size="64" transform="matrix(1 0 0 1 2288.33 25151)">MSE loss</text></g><rect x="1423.5" y="25055.5" width="1959" height="1150" stroke="#D9D9D9" stroke-width="3.4375" stroke-linejoin="round" stroke-miterlimit="10" fill="none"/></g></svg>