<svg width="2078" height="1179" xmlns="http://www.w3.org/2000/svg" xmlns:xlink="http://www.w3.org/1999/xlink" xml:space="preserve" overflow="hidden"><defs><clipPath id="clip0"><rect x="1727" y="25162" width="2078" height="1179"/></clipPath></defs><g clip-path="url(#clip0)" transform="translate(-1727 -25162)"><rect x="1728" y="25163" width="2075" height="1176" fill="#FFFFFF"/><g><path d="M1880.5 26072.4 3752.5 26072.4M1880.5 25924.3 3752.5 25924.3M1880.5 25776.3 3752.5 25776.3M1880.5 25628.3 3752.5 25628.3M1880.5 25480.3 3752.5 25480.3M1880.5 25332.5 3752.5 25332.5" stroke="#D9D9D9" stroke-width="3.4375" stroke-linejoin="round" stroke-miterlimit="10" fill="none"/></g><g><path d="M1880.5 26220.5 3752.5 26220.5" stroke="#D9D9D9" stroke-width="3.4375" stroke-linejoin="round" stroke-miterlimit="10" fill="none" fill-rule="evenodd"/></g><g><path d="M1883 26204.9 1888.06 26208.9 1893.06 26174.9 1899.06 26205.9 1904.06 26206.9 1909.06 26205.9 1915.06 26208.9 1920.06 26206.9 1925.06 26207.9 1931.06 26189.9 1936.06 26192.9 1942.06 26204.9 1947.06 26209.9 1952.06 26209.9 1958.06 26182.9 1963.06 26196.9 1968.06 26209.9 1974.06 26188.9 1979.06 26180.9 1984.07 26207.9 1990.07 26212.9 1995.07 26210.9 2000.07 26210.9 2006.07 26210.9 2011.07 26209.9 2016.07 26210.9 2022.07 26212.9 2027.07 26210.9 2032.07 26199.9 2038.07 26204.9 2043.07 26209.9 2049.07 26209.9 2054.07 26213.9 2059.07 26212.9 2065.07 26212.9 2070.07 26211.9 2075.07 26206.9 2081.07 26211.9 2086.07 26209.9 2091.07 26210.9 2097.07 26213.9 2102.07 26213.9 2107.07 26213.9 2113.07 26210.9 2118.07 26203.9 2123.07 26213.9 2129.07 26211.9 2134.07 26213.9 2139.07 26210.9 2145.07 26212.9 2150.07 26209.9 2156.07 26204.9 2161.07 26213.9 2166.07 26213.9 2172.07 26213.9 2177.07 26213.9 2182.07 26212.9 2188.07 26211.9 2193.07 26215 2198.07 26209.9 2204.07 26211.9 2209.07 26210.9 2214.07 26215 2220.07 26211.9 2225.07 26209.9 2230.07 26210.9 2236.07 26210.9 2241.07 26213.9 2246.07 26211.9 2252.07 26213.9 2257.07 26213.9 2263.07 26213.9 2268.07 26208.9 2273.07 26212.9 2279.07 26212.9 2284.07 26210.9 2289.08 26213.9 2295.08 26211.9 2300.08 26208.9 2305.08 26210.9 2311.08 26210.9 2316.08 26211.9 2321.08 26213.9 2327.08 26215 2332.08 26208.9 2337.08 26212.9 2343.08 26213.9 2348.08 26211.9 2354.08 26213.9 2359.08 26211.9 2364.08 26212.9 2370.08 26210.9 2375.08 26213.9 2380.08 26213.9 2386.08 26215 2391.08 26212.9 2396.08 26208.9 2402.08 26213.9 2407.08 26210.9 2412.08 26213.9 2418.08 26213.9 2423.08 26213.9 2428.08 26213.9 2434.08 26211.9 2439.08 26212.9 2444.08 26210.9 2450.08 26213.9 2455.08 26213.9 2461.08 26213.9 2466.08 26210.9 2471.08 26207.9 2477.08 26215 2482.08 26213.9 2487.08 26213.9 2493.08 26213.9 2498.08 26211.9 2503.08 26210.9 2509.08 26210.9 2514.08 26212.9 2519.08 26211.9 2525.08 26213.9 2530.08 26213.9 2535.08 26212.9 2541.08 26213.9 2546.08 26210.9 2551.08 26215 2557.08 26211.9 2562.08 26210.9 2568.08 26212.9 2573.08 26212.9 2578.08 26209.9 2584.08 26211.9 2589.08 26213.9 2594.09 26213.9 2600.09 26213.9 2605.09 26208.9 2610.09 26213.9 2616.09 26211.9 2621.09 26210.9 2626.09 26213.9 2632.09 26213.9 2637.09 26210.9 2642.09 26210.9 2648.09 26212.9 2653.09 26213.9 2658.09 26215 2664.09 26211.9 2669.09 26213.9 2675.09 26213.9 2680.09 26213.9 2685.09 26212.9 2691.09 26213.9 2696.09 26213.9 2701.09 26213.9 2707.09 26213.9 2712.09 26213.9 2717.09 26213.9 2723.09 26213.9 2728.09 26212.9 2733.09 26211.9 2739.09 26213.9 2744.09 26213.9 2749.09 26213.9 2755.09 26212.9 2760.09 26213.9 2766.09 26210.9 2771.09 26210.9 2776.09 26213.9 2782.09 26210.9 2787.09 26210.9 2792.09 26213.9 2798.09 26210.9 2803.09 26210.9 2808.09 26210.9 2814.09 26211.9 2819.09 26210.9 2824.09 26210.9 2830.09 26211.9 2835.09 26203.9 2840.09 26204.9 2846.09 26179.9 2851.09 26204.9 2856.09 26190.9 2862.09 26197.9 2867.09 26206.9 2873.09 26171.9 2878.09 26168.9 2883.09 26161.9 2889.09 26033.9 2894.09 26182.9 2899.1 26166.9 2905.1 26192.9 2910.1 26187.9 2915.1 26201.9 2921.1 26152.9 2926.1 26176.9 2931.1 26172.9 2937.1 26070.9 2942.1 26121.9 2947.1 26017.9 2953.1 26107.9 2958.1 26111.9 2963.1 26090.9 2969.1 26064.9 2974.1 25973.9 2980.1 26112.9 2985.1 26111.9 2990.1 26087.9 2996.1 26103.9 3001.1 26108.9 3006.1 26075.9 3012.1 26108.9 3017.1 26093.9 3022.1 26087.9 3028.1 26071.9 3033.1 26082.9 3038.1 26036.9 3044.1 26061.9 3049.1 26050.9 3054.1 26112.9 3060.1 26058.9 3065.1 26017.9 3070.1 26015.9 3076.1 25995.9 3081.1 26020.9 3087.1 25984.9 3092.1 26037.9 3097.1 25999.9 3103.1 25913.8 3108.1 25988.9 3113.1 25947.9 3119.1 25885.8 3124.1 26042.9 3129.1 25916.8 3135.1 25837.8 3140.1 25892.8 3145.1 25861.8 3151.1 25823.8 3156.1 25586.8 3161.1 25826.8 3167.1 26057.9 3172.1 25868.8 3178.1 25688.8 3183.1 25481 3188.1 25557.8 3194.1 25624.8 3199.1 26141.9 3204.11 25692.8 3210.11 25798.8 3215.11 25885.8 3220.11 25754.8 3226.11 25675.8 3231.11 25554.8 3236.11 25734.8 3242.11 25481 3247.11 25627.8 3252.11 25801.8 3258.11 25752.8 3263.11 25965.9 3268.11 25827.8 3274.11 25633.8 3279.11 25696.8 3285.11 25671.8 3290.11 25713.8 3295.11 25819.8 3301.11 25740.8 3306.11 25822.8 3311.11 25786.8 3317.11 25770.8 3322.11 25823.8 3327.11 25609.8 3333.11 26029.9 3338.11 25731.8 3343.11 25543.8 3349.11 25644.8 3354.11 25614.8 3359.11 25607.8 3365.11 25664.8 3370.11 25656.8 3375.11 25859.8 3381.11 25831.8 3386.11 25481 3392.11 25869.8 3397.11 25690.8 3402.11 25648.8 3408.11 25505.8 3413.11 25481 3418.11 25817.8 3424.11 25481 3429.11 25481 3434.11 25481 3440.11 25481 3445.11 25481 3450.11 25481 3456.11 25481 3461.11 25481 3466.11 25481 3472.11 25481 3477.11 25481 3483.11 25481 3488.11 25481 3493.11 25481 3499.11 25774.8 3504.11 25481 3509.12 25925.8 3515.12 25906.8 3520.12 25713.8 3525.12 25772.8 3531.12 25911.8 3536.12 25939.9 3541.12 25890.8 3547.12 25881.8 3552.12 25788.8 3557.12 25481 3563.12 25481 3568.12 25813.8 3573.12 25677.8 3579.12 25898.8 3584.12 26011.9 3590.12 25859.8 3595.12 25837.8 3600.12 25481 3606.12 25724.8 3611.12 25724.8 3616.12 25736.8 3622.12 25853.8 3627.12 25481 3632.12 25481 3638.12 25481 3643.12 25847.8 3648.12 25481 3654.12 25481 3659.12 25481 3664.12 25481 3670.12 25481 3675.12 25481 3680.12 25481 3686.12 25481 3691.12 25481 3697.12 25481 3702.12 25481 3707.12 25481 3713.12 25481 3718.12 25481 3723.12 25481 3729.12 25481 3734.12 25481 3739.12 25481 3745.12 25481 3750 25481" stroke="#4472C4" stroke-width="10.3125" stroke-linecap="round" stroke-linejoin="round" stroke-miterlimit="10" fill="none"/></g><g><text fill="#595959" font-family="Calibri,Calibri_MSFontService,sans-serif" font-weight="400" font-size="41" transform="matrix(1 0 0 1 1820.87 26232)">0</text></g><g><text fill="#595959" font-family="Calibri,Calibri_MSFontService,sans-serif" font-weight="400" font-size="41" transform="matrix(1 0 0 1 1779.07 26084)">200</text></g><g><text fill="#595959" font-family="Calibri,Calibri_MSFontService,sans-serif" font-weight="400" font-size="41" transform="matrix(1 0 0 1 1779.07 25936)">400</text></g><g><text fill="#595959" font-family="Calibri,Calibri_MSFontService,sans-serif" font-weight="400" font-size="41" transform="matrix(1 0 0 1 1779.07 25788)">600</text></g><g><text fill="#595959" font-family="Calibri,Calibri_MSFontService,sans-serif" font-weight="400" font-size="41" transform="matrix(1 0 0 1 1779.07 25640)">800</text></g><g><text fill="#595959" font-family="Calibri,Calibri_MSFontService,sans-serif" font-weight="400" font-size="41" transform="matrix(1 0 0 1 1758.17 25492)">1000</text></g><g><text fill="#595959" font-family="Calibri,Calibri_MSFontService,sans-serif" font-weight="400" font-size="41" transform="matrix(1 0 0 1 1758.17 25344)">1200</text></g><g><text fill="#595959" font-family="Calibri,Calibri_MSFontService,sans-serif" font-weight="400" font-size="41" transform="matrix(6.12323e-17 -1 1 6.12323e-17 1896.53 26268)">1</text></g><g><text fill="#595959" font-family="Calibri,Calibri_MSFontService,sans-serif" font-weight="400" font-size="41" transform="matrix(6.12323e-17 -1 1 6.12323e-17 1950.04 26289)">11</text></g><g><text fill="#595959" font-family="Calibri,Calibri_MSFontService,sans-serif" font-weight="400" font-size="41" transform="matrix(6.12323e-17 -1 1 6.12323e-17 2003.55 26289)">21</text></g><g><text fill="#595959" font-family="Calibri,Calibri_MSFontService,sans-serif" font-weight="400" font-size="41" transform="matrix(6.12323e-17 -1 1 6.12323e-17 2057.06 26289)">31</text></g><g><text fill="#595959" font-family="Calibri,Calibri_MSFontService,sans-serif" font-weight="400" font-size="41" transform="matrix(6.12323e-17 -1 1 6.12323e-17 2110.57 26289)">41</text></g><g><text fill="#595959" font-family="Calibri,Calibri_MSFontService,sans-serif" font-weight="400" font-size="41" transform="matrix(6.12323e-17 -1 1 6.12323e-17 2164.08 26289)">51</text></g><g><text fill="#595959" font-family="Calibri,Calibri_MSFontService,sans-serif" font-weight="400" font-size="41" transform="matrix(6.12323e-17 -1 1 6.12323e-17 2217.59 26289)">61</text></g><g><text fill="#595959" font-family="Calibri,Calibri_MSFontService,sans-serif" font-weight="400" font-size="41" transform="matrix(6.12323e-17 -1 1 6.12323e-17 2271.09 26289)">71</text></g><g><text fill="#595959" font-family="Calibri,Calibri_MSFontService,sans-serif" font-weight="400" font-size="41" transform="matrix(6.12323e-17 -1 1 6.12323e-17 2324.6 26289)">81</text></g><g><text fill="#595959" font-family="Calibri,Calibri_MSFontService,sans-serif" font-weight="400" font-size="41" transform="matrix(6.12323e-17 -1 1 6.12323e-17 2378.11 26289)">91</text></g><g><text fill="#595959" font-family="Calibri,Calibri_MSFontService,sans-serif" font-weight="400" font-size="41" transform="matrix(6.12323e-17 -1 1 6.12323e-17 2431.62 26310)">101</text></g><g><text fill="#595959" font-family="Calibri,Calibri_MSFontService,sans-serif" font-weight="400" font-size="41" transform="matrix(6.12323e-17 -1 1 6.12323e-17 2485.13 26310)">111</text></g><g><text fill="#595959" font-family="Calibri,Calibri_MSFontService,sans-serif" font-weight="400" font-size="41" transform="matrix(6.12323e-17 -1 1 6.12323e-17 2538.64 26310)">121</text></g><g><text fill="#595959" font-family="Calibri,Calibri_MSFontService,sans-serif" font-weight="400" font-size="41" transform="matrix(6.12323e-17 -1 1 6.12323e-17 2592.15 26310)">131</text></g><g><text fill="#595959" font-family="Calibri,Calibri_MSFontService,sans-serif" font-weight="400" font-size="41" transform="matrix(6.12323e-17 -1 1 6.12323e-17 2645.65 26310)">141</text></g><g><text fill="#595959" font-family="Calibri,Calibri_MSFontService,sans-serif" font-weight="400" font-size="41" transform="matrix(6.12323e-17 -1 1 6.12323e-17 2699.16 26310)">151</text></g><g><text fill="#595959" font-family="Calibri,Calibri_MSFontService,sans-serif" font-weight="400" font-size="41" transform="matrix(6.12323e-17 -1 1 6.12323e-17 2752.67 26310)">161</text></g><g><text fill="#595959" font-family="Calibri,Calibri_MSFontService,sans-serif" font-weight="400" font-size="41" transform="matrix(6.12323e-17 -1 1 6.12323e-17 2806.18 26310)">171</text></g><g><text fill="#595959" font-family="Calibri,Calibri_MSFontService,sans-serif" font-weight="400" font-size="41" transform="matrix(6.12323e-17 -1 1 6.12323e-17 2859.69 26310)">181</text></g><g><text fill="#595959" font-family="Calibri,Calibri_MSFontService,sans-serif" font-weight="400" font-size="41" transform="matrix(6.12323e-17 -1 1 6.12323e-17 2913.2 26310)">191</text></g><g><text fill="#595959" font-family="Calibri,Calibri_MSFontService,sans-serif" font-weight="400" font-size="41" transform="matrix(6.12323e-17 -1 1 6.12323e-17 2966.71 26310)">201</text></g><g><text fill="#595959" font-family="Calibri,Calibri_MSFontService,sans-serif" font-weight="400" font-size="41" transform="matrix(6.12323e-17 -1 1 6.12323e-17 3020.21 26310)">211</text></g><g><text fill="#595959" font-family="Calibri,Calibri_MSFontService,sans-serif" font-weight="400" font-size="41" transform="matrix(6.12323e-17 -1 1 6.12323e-17 3073.72 26310)">221</text></g><g><text fill="#595959" font-family="Calibri,Calibri_MSFontService,sans-serif" font-weight="400" font-size="41" transform="matrix(6.12323e-17 -1 1 6.12323e-17 3127.23 26310)">231</text></g><g><text fill="#595959" font-family="Calibri,Calibri_MSFontService,sans-serif" font-weight="400" font-size="41" transform="matrix(6.12323e-17 -1 1 6.12323e-17 3180.74 26310)">241</text></g><g><text fill="#595959" font-family="Calibri,Calibri_MSFontService,sans-serif" font-weight="400" font-size="41" transform="matrix(6.12323e-17 -1 1 6.12323e-17 3234.25 26310)">251</text></g><g><text fill="#595959" font-family="Calibri,Calibri_MSFontService,sans-serif" font-weight="400" font-size="41" transform="matrix(6.12323e-17 -1 1 6.12323e-17 3287.76 26310)">261</text></g><g><text fill="#595959" font-family="Calibri,Calibri_MSFontService,sans-serif" font-weight="400" font-size="41" transform="matrix(6.12323e-17 -1 1 6.12323e-17 3341.27 26310)">271</text></g><g><text fill="#595959" font-family="Calibri,Calibri_MSFontService,sans-serif" font-weight="400" font-size="41" transform="matrix(6.12323e-17 -1 1 6.12323e-17 3394.77 26310)">281</text></g><g><text fill="#595959" font-family="Calibri,Calibri_MSFontService,sans-serif" font-weight="400" font-size="41" transform="matrix(6.12323e-17 -1 1 6.12323e-17 3448.28 26310)">291</text></g><g><text fill="#595959" font-family="Calibri,Calibri_MSFontService,sans-serif" font-weight="400" font-size="41" transform="matrix(6.12323e-17 -1 1 6.12323e-17 3501.79 26310)">301</text></g><g><text fill="#595959" font-family="Calibri,Calibri_MSFontService,sans-serif" font-weight="400" font-size="41" transform="matrix(6.12323e-17 -1 1 6.12323e-17 3555.3 26310)">311</text></g><g><text fill="#595959" font-family="Calibri,Calibri_MSFontService,sans-serif" font-weight="400" font-size="41" transform="matrix(6.12323e-17 -1 1 6.12323e-17 3608.81 26310)">321</text></g><g><text fill="#595959" font-family="Calibri,Calibri_MSFontService,sans-serif" font-weight="400" font-size="41" transform="matrix(6.12323e-17 -1 1 6.12323e-17 3662.32 26310)">331</text></g><g><text fill="#595959" font-family="Calibri,Calibri_MSFontService,sans-serif" font-weight="400" font-size="41" transform="matrix(6.12323e-17 -1 1 6.12323e-17 3715.83 26310)">341</text></g><g><text fill="#595959" font-family="Calibri,Calibri_MSFontService,sans-serif" font-weight="400" font-size="64" transform="matrix(1 0 0 1 2673.7 25258)">reward</text></g><rect x="1728.5" y="25163.5" width="2075" height="1176" stroke="#D9D9D9" stroke-width="3.4375" stroke-linejoin="round" stroke-miterlimit="10" fill="none"/></g></svg>