<?xml version="1.0" encoding="UTF-8" standalone="no"?>
<!--
************* Copyright (c) 2017 Pareto Softare, LLC DBA Simplemaps.com *******************		
************* Free for Commercial Use, full terms at  http://simplemaps.com/resources/svg-license ************
************* Attribution is appreciated! http://simplemaps.com ***************************
-->

<svg
   baseprofile="tiny"
   fill="#7c7c7c"
   height="1295"
   stroke="#ffffff"
   stroke-linecap="round"
   stroke-linejoin="round"
   stroke-width="2"
   version="1.2"
   viewbox="0 0 1000 1295"
   width="1000"
   id="svg58"
   sodipodi:docname="tw.svg"
   inkscape:version="1.2.1 (9c6d41e410, 2022-07-14)"
   xmlns:inkscape="http://www.inkscape.org/namespaces/inkscape"
   xmlns:sodipodi="http://sodipodi.sourceforge.net/DTD/sodipodi-0.dtd"
   xmlns="http://www.w3.org/2000/svg"
   xmlns:svg="http://www.w3.org/2000/svg">
  <defs
     id="defs62" />
  <sodipodi:namedview
     id="namedview60"
     pagecolor="#ffffff"
     bordercolor="#000000"
     borderopacity="0.25"
     inkscape:showpageshadow="2"
     inkscape:pageopacity="0.0"
     inkscape:pagecheckerboard="0"
     inkscape:deskcolor="#d1d1d1"
     showgrid="false"
     inkscape:zoom="0.68111408"
     inkscape:cx="510.92763"
     inkscape:cy="611.49815"
     inkscape:window-width="1920"
     inkscape:window-height="1001"
     inkscape:window-x="-9"
     inkscape:window-y="-9"
     inkscape:window-maximized="1"
     inkscape:current-layer="svg58" />
  <path
     d="M739.8 857.3l1.9 5.8-3 5-5.6 2.4-1.4 3.2 1 4 5.6 3.6 6.3 5.2 2.8 7.6 0.3 2.5-15.6 3.8-6.4 4.1-4 3.9-7.8 5.1-0.9 5.7 2.3 6-2.7 4.9-7.4 4-0.8 6.9 2.1 9.9-3 13.2-0.1 11.2-4.3 5.9-8.5 7.2-2.3 9.8 1.3 8.1 3 4.6 6.2 6.4 1.2 4.9-3.9 0.5-5.2-0.9-4.3 0.2-8.5 6.7-5.9-5.5-7.6-8.9-7.2 1.8-6.6 5.9-13.1-6.6-9.4 4.5-6.4 7.1-8 2.8-17.8-1.1-1.7 4.9-1.3 7.2-2.6 7.9 0.5 7-0.1 9.5-5.7 21.2-0.1 7.1 2.7 7.5 0.4 8.2-8.1 20.5-2.6-1.1-1.6 0.1-1.8 0.7-2.2 0-13-10.2-12.1-17.1 12.7 15.4-1.5-7.4-3.8-7.2-5.3-6-9-8.4-3.5-4.2-1.6-4.8 2.2-4.6 1.1-4.1-1.5-5.8-2.7-5.6-4.9-7.7-4.6-10.2-1-4.5 0.1-3 1.5-3.6 0.3-2.4-0.5-1.2-2.7-2.3-0.5-2.3-2.9-4.9-0.7-2-2.1-13.6 6.1-3.7 0.2 0.5 3.9 8.6 4.8 2.5 15.7 2.2 8.2-0.9 8.4 1 4.2-1.5 3.5-2.6 6.5-2.6 6.3-4.4 2.4-5.5 3-5.2 5.3-7.1 6.1-6.4 6.5-5.4 7.4-7.2 6.5-8.4 10-17 10.4-15.1 2.3-6.6-1-6.7-1.4-4.5 0.1-5 3.6-3.5 6.9 0.7 5.8-0.6 12.3-7.3 4.5-5.4 7.9-6.1 7.7-4.3 4.2-5 3.6-6.8 8.5-6.8 18.5-9.4 4.3 1 5.8 2.2 4.2 5.9 0.7 2z"
     id="TWN1156"
     name="Kaohsiung City" />
  <path
     d="M569.4 1166l2 2.9-0.3 1-2.7 1.8-5 4.3-0.9-3.3 1.4-2.7 2.8-3.6 2 0 0.7-0.4z m126.7-143.3l3.5 6.6 0.7 4.9 5.4 1.3 5.5 3.6-2.8 13.8-0.1 5.2-2 5-9.8 4.1-4.8 2.7-7.6 1.6-5.4 4.5-2.4 6.6-3.7 6.6-3 7.5-0.8 14.7 1.2 6.5 2 6.1 1.1 7.1 0 5.4 2.6 5 4.6 5.6-2.5 3.8-5.3 3.2-2.1 3.9-0.5 4.5 2.7 3.9 3.4 1.7 3.1 4.4-0.1 5.7 0.6 6.1 3.2 5.9 4.6 4.9 10.2 4.7 4.5-0.3 0.9 51.6-1.6 7.3-2.5 6-3.4 2.5-4 3.7 0.1 8.3 1.5 9.2-0.4 5.9-4.5-6.8-6.8-5.2-7.8-3.5-8-1.9-0.3 6.6-2.3 2.3-3.4-0.8-3.7-3.1-0.2-2.4 1.3-7-5.5-9.2-0.5-2.4 0.1-2.1 0.4-3.2 0-10.8 0.5-3.1 2.5-3.6 0.5-3-19.9-51.6-1.6-2.9-5.5-6.8-4.4-9.9-2-2.8-8.2-6.5-5.4-3-0.9-3.7-0.7-1.3-4.4-2.9-10-4.8-4.5-3.1-4.8-4.2-2.6-1.6 8.1-20.5-0.4-8.2-2.7-7.5 0.1-7.1 5.7-21.2 0.1-9.5-0.5-7 2.6-7.9 1.3-7.2 1.7-4.9 17.8 1.1 8-2.8 6.4-7.1 9.4-4.5 13.1 6.6 6.6-5.9 7.2-1.8 7.6 8.9 5.9 5.5 8.5-6.7 4.3-0.2 5.2 0.9z"
     id="TWN1158"
     name="Pingtung" />
  <path
     d="M483.8 968.3l-0.6 1.2-2.3-2-1.7-4.2 0.3-1.3 0.7 0 0.9 1.2 0.7 1.9 2.1 2.2-0.1 1z m0.5-27.6l-2.9 6.8 3.9-13.3 0.6 0.1-1.6 6.4z m3.5-12.8l3.5-9.9 0.5-0.1 0.2 1.9-4.2 8.1z m6.3-22.5l-0.4 2.4 0.6-10.6 0.5 0.2-0.7 8z m149.5 11.5l-2.3 6.6-10.4 15.1-10 17-6.5 8.4-7.4 7.2-6.5 5.4-6.1 6.4-5.3 7.1-3 5.2-2.4 5.5-6.3 4.4-6.5 2.6-3.5 2.6-4.2 1.5-8.4-1-8.2 0.9-15.7-2.2-4.8-2.5-3.9-8.6-0.2-0.5-6.1 3.7-1-6.3-1.8-3.6-3.9-3.9 4.7-3.4 2.7-6.1-1.1-5.2-6.3-0.9-1.2 1.8-1.1 3.4-1.8 2.7-3.3-0.1-1.3-2.3 0.5-7-0.8-2.4-4.1-1.8-2.3 2.1-1.8 2.9-2.8 0.7-2.9-2.5-0.7-3.5 0.7-3.4 1.1-2.3 3-1.6 3.7-0.5 3.1-1 1-3-1.4-1.5-9.4-2.4 0-1.9 7.9-0.1-0.8-2.6-4.3-3.7-2.8-3.2 0.7-4 2.5-1.5 2.7-0.9 1.4-2.5-0.8-3.9-1.4-3.2 0.9-3 1.4-3.7 2.3-2.6-0.5-2.3 0.5-2.3 3.3-9 1.6-1.7 2.6-0.6-3.7-2.5 1.6-4.1 5.2 2 8.9 1.3 7.2 1.8 6.2-2.8 2.5-4.9 5.8-3.6 6.6-5.1 4.7-4.8 6.1-4.6 7.8-3.5 15.2-2.8 8.5-0.5 7.2 2.4 4 2.4 2.1 4.2 1.7 5.1 9.9 10.1 1 7.5-1.8 14.2 1.6 4.6 4.5 3.5 3.8 0 5.3-2.4 5-0.6 3.7 1.1 8.4 1z"
     id="TWN1160"
     name="Tainan City" />
  <path
     d="M724.3 489l-0.2 0.2-4.6 1.1-4.4-1.7-2.7-3.8-4.3-2.6-6.9-2.7 1.2-4.1 5.5-11.4 2.2-3 0.7-1.5 0-1.7-0.7-1.9-1.1-2.2 1.5-3 1.8-1.8 8.3 3.6 15.1 4.8 5.4 2.8 3.8 3.9 1.9 3.7-1 3.6-2.4 1.4-5.1 0.9-5.9 2.4-3.4 4.3-2.3 5.6-2.4 3.1z"
     id="TWN1161"
     name="Hsinchu City" />
  <path
     d="M843.1 523.6l-2.3 6.5-1.4 4.7 0.6 4.4-3.8 5.8-14 14.2-4.3 10.5-2.8-0.8-10.6 1-0.8 0.6-0.6-4.9-4.6-7.8-3.3-3.3-1.3-4.4-5-4-12.5 3.2-4.8-0.5-6.8 0.5-7.7 2.1-4.1-1 0.9-5.1 1.3-4.6-1-4-1-2.9 1-3.1 0.8-3.5 0.3-3.9-0.7-5.2-3.9-3.4-12.1-5.7-6-4.5-3.9-4.4-4.4-11.1 2.4-3.1 2.3-5.6 3.4-4.3 5.9-2.4 5.1-0.9 2.4-1.4 1-3.6-1.9-3.7-3.8-3.9-5.4-2.8-15.1-4.8-8.3-3.6 1.5-2.3 0.6-3.9 0.9-2.9 2-2.9 2.7-2.1 2.5-0.9-0.2-1.2 0.7-2.9 2.2-6.1 2.1-3.3 3.1 1.1 13.7-1 4.6 3.1 4 8.7 5 2 4.3 1.2 4.1 2 6.8 2.2 3.6 4.2-1.1 5.8 3.5 3.7 6.5 2.1 4.2 3.1 3.1 3.1 3.8 0.7 3.9-0.3 3.4 3.5 2.6 4.5 4.3 2.2 3.4 2.6 0.4 5 1.6 7.3-1.9 7.8-4.6 6.5 0.5 4.3 5.2 3.9 6.2 3.8 5.5 0.9 4 2.9 7.3 4.1 4.8 2.2z"
     id="TWN1162"
     name="Hsinchu" />
  <path
     d="M982.4 448.9l2.1 0.5 1.6 2.2-0.7 2.3-3.8-0.1-1.4-0.8-1.7-2.7 0.9 0.3 3-1.7z m-47 152.6l-1.1 0-11.1-1.7-18.5-11.1-3.8 0.9-2.4 6-4.9 4.5-6.5 0-8.3-3.2-15-3.8-6.5-3.1-2.5-2.1-5.9-4.7-4.9 0-4.7 2.3-4 0.6-3.7-2.5-4.4-2.6-4.9-1-1.4-3.8 0.6-5.5-3.6-1 4.3-10.5 14-14.2 3.8-5.8-0.6-4.4 1.4-4.7 2.3-6.5 0.5-1.5 3.9-1.6 3.3 0.6 3.4-1.3 2.2-3.8-3.1-12.4 5.4-3.9 3.1-0.9 5.7-1.6 4.9-1.8 3.8-3.3 5-3.5 6.6-3.2 3.9-2.8-0.4-2-1-3.2-0.2-4.2 2-4.9 4.7-4 3.8-2.3 13-5.3 13.5-8.1 6.2-1.9 5-3.6 3.1-5 3.3-4.1 3.7-2 3.5-1.2 4.6-2.9 1.6-3.8-2.5-3.6 1.4-2.9 11.2-2.3 3.7-2.5 8.4-4.4 5.9-1.3 3.3 1.9 0.8 1.1-12 6-5.5 4.7-18.7 22.8-2.9 4.8-2.3 6.8-1.6 7.7-0.5 7.6 0.3 7.4 3.3 15.5-0.2 4-1.5 3.9 0.2 8.1 3.5 6.3 6.5 4 7.6 1.4 0 1.8-3.2-0.3-3.1 0.3-2.6 0.8-1.9 1.4 2.7 5 1.3 6.5-0.8 5.6-6 3.4-0.4 2.5 0.7 3 1.7 2.7 0.6 2.8-2.5 2.4-6.2 3.6-7 8-0.3 3.2 0.5 7-1.2 2.6-1.3 2.3-0.8 3.2-0.5 6.4-0.6 1.6-1 1.3-0.5 1.4 1.3 1.9z"
     id="TWN1163"
     name="Yilan" />
  <path
     d="M934.8 365l-0.3 11.9 0.2 3 3.7 3.9-0.4 2.5-2.5 1.8-4 1.5-5.1-0.6-10.6-4.4-3-2.2-3.7-3.4-2.8-3.5-1.7-3.5-2.9-3.7-0.6-2.9 3.2-2.2 7.2-3.1 4.4-2.9 1.4 0.9 2.4 2.7 3.9 1.4 11.2 2.8z"
     id="TWN1164"
     name="Keelung City" />
  <path
     d="M724.3 489l4.4 11.1 3.9 4.4 6 4.5 12.1 5.7 3.9 3.4 0.7 5.2-0.3 3.9-0.8 3.5-1 3.1 1 2.9 1 4-1.3 4.6-0.9 5.1 4.1 1 7.7-2.1 6.8-0.5 4.8 0.5 12.5-3.2 5 4 1.3 4.4 3.3 3.3 4.6 7.8 0.6 4.9-3.7 2.6-1.8 5.6-4.9 2-5.3-0.1-4.2 3-4.6 4.4-5.9 3.2-11.6 9.2-6.8 2.9-8.9 4.7-5.4-2.1-5-5.6-6-2.4-9.9-0.8-5.5 3.3-0.9 7.4-5.2 2.8-12.1 0.7-11.6-6.7-6.6-1.2-7.3-3.6-15.1-11.1-6.3-5.5-4.7-5-9.2-14.3 7.2-8.1 1.9-4 0.9-6.6 2.2-5.6 5.9-10.4 1.6-6.3 1.5-2.7 6.8-2 1.9-2.1 1.1-2.6 1.4-2.5 4.2-4.3 4.6-3.4 5.6-1.5 7.1 1.3-0.9-5.4 2.7-3.7 3.7-3.8 1.9-5.7 0.8-1.9 3.6-1.8 0.3-1.3 6.9 2.7 4.3 2.6 2.7 3.8 4.4 1.7 4.6-1.1 0.2-0.2z"
     id="TWN1165"
     name="Miaoli" />
  <path
     d="M897.4 413.2l-4.2 1.7-5.8-0.1-4.8-1-3.7-3.3-3.8-4.3-5.8-4.6-3.9-6.7 1.5-7.4-1.2-6.3-5.7-5.5-3.8-4.2 1.6-3 1.8-2.4 2.1-4.6 3.6-4 10.9-6.4 2.9-2.5 4-2 3.8 1.2 2.1 2.2-0.5 3.6 0.4 3.5 3.2 6.8 2.5 10 3.9 3.5 1.6 4.4-1.6 6.6 0.1 5.1 4.6 2.6 3.8 3.2-2 4.3-7.6 9.6z"
     id="TWN1166"
     name="Taipei City" />
  <path
     d="M915.9 357.2l-4.4 2.9-7.2 3.1-3.2 2.2 0.6 2.9 2.9 3.7 1.7 3.5 2.8 3.5 3.7 3.4 3 2.2 10.6 4.4 5.1 0.6 4-1.5 2.5-1.8 0.4-2.5-3.7-3.9-0.2-3 0.3-11.9 34.6 8.4 3.2 2-1.6 3.7-0.4 2.9 0.7 5.2 2.4 8.7 2.6 4.1 2.2 0.9 7-1 3.6 0.4 4.2 1.1 3.7 1.9 2 2.5-8.7 4.3-0.8-1.1-3.3-1.9-5.9 1.3-8.4 4.4-3.7 2.5-11.2 2.3-1.4 2.9 2.5 3.6-1.6 3.8-4.6 2.9-3.5 1.2-3.7 2-3.3 4.1-3.1 5-5 3.6-6.2 1.9-13.5 8.1-13 5.3-3.8 2.3-4.7 4-2 4.9 0.2 4.2 1 3.2 0.4 2-3.9 2.8-6.6 3.2-5 3.5-3.8 3.3-4.9 1.8-5.7 1.6-2.5-5.4-8.9-8.5-1.4-5.6-0.8-5.2 3.1-3.7 1.5-5.3-8.5-12.3-5-2-7.4 0.4-5.1-2.9 1.3-6.7-1-5.1-5.4-5.1-1-5.1 1-5.8-0.2-6.2 3.7-4 13.1-3.9 3.3-3.4 1-4.2-0.5-4.1-5.1-7.5-4.2-2.2-4.1-1-3.2-2.8-4.7-3.1-6.3-3-4.2-4.6 11.2-2.1 4.8-1.8 6.1-5.2 1.9-0.9 2.2-0.4 3.1 0 3.5 1.1 1.9 2.7 1.2 2.7 1.5 1.6 3.5-1.4-3.6-5.7-5.8-5.9-3.1-1.9 0.9-2.7 1.8-1.5 1.9-0.9 0.8-1 2.1-5.1 3.2-5.9 6.6-5.9 9.6-4.9 11-2.5 10.8 1.2 4.5 3.4 10 14.2 3.6 7.4 1.2-0.5 2.7-0.7 3-0.4 2.2 0.6-0.1 0.9-1.1 1.3-1 1.8 0.1 2.2 1.1 1.2 2.3 1.7z m-18.5 56l7.6-9.6 2-4.3-3.8-3.2-4.6-2.6-0.1-5.1 1.6-6.6-1.6-4.4-3.9-3.5-2.5-10-3.2-6.8-0.4-3.5 0.5-3.6-2.1-2.2-3.8-1.2-4 2-2.9 2.5-10.9 6.4-3.6 4-2.1 4.6-1.8 2.4-1.6 3 3.8 4.2 5.7 5.5 1.2 6.3-1.5 7.4 3.9 6.7 5.8 4.6 3.8 4.3 3.7 3.3 4.8 1 5.8 0.1 4.2-1.7z"
     id="TWN1167"
     name="New Taipei City" />
  <path
     d="M861.8 498.8l-3.1 0.9-5.4 3.9 3.1 12.4-2.2 3.8-3.4 1.3-3.3-0.6-3.9 1.6-0.5 1.5-4.8-2.2-7.3-4.1-4-2.9-5.5-0.9-6.2-3.8-5.2-3.9-0.5-4.3 4.6-6.5 1.9-7.8-1.6-7.3-0.4-5-3.4-2.6-4.3-2.2-2.6-4.5-3.4-3.5-3.9 0.3-3.8-0.7-3.1-3.1-4.2-3.1-6.5-2.1-3.5-3.7 1.1-5.8-3.6-4.2-6.8-2.2-4.1-2-4.3-1.2-5-2-4-8.7-4.6-3.1-13.7 1-3.1-1.1 8.9-14.2 6.9-8.3 7.2-6.1 18.4-6.1 4.3-2.7 3.7-3.2 4.5-2.5 9-3.2 20.1-3.6 4.2 4.6 6.3 3 4.7 3.1 3.2 2.8 4.1 1 4.2 2.2 5.1 7.5 0.5 4.1-1 4.2-3.3 3.4-13.1 3.9-3.7 4 0.2 6.2-1 5.8 1 5.1 5.4 5.1 1 5.1-1.3 6.7 5.1 2.9 7.4-0.4 5 2 8.5 12.3-1.5 5.3-3.1 3.7 0.8 5.2 1.4 5.6 8.9 8.5 2.5 5.4z"
     id="TWN1168"
     name="Taoyuan" />
  <path
     d="M647.2 689.6l0.1 3.6-4.3 1.6-1.2 2.9 0.5 4-2 4.6-1.6 5.4-0.1 5.7-1.2 6.6-0.9 13.4 2.1 6.3 3.6 3.3 3.9 1.4 5.6 2.9-1 3.5-3.8 1.5-2.5 2.3-2.4 1.6-1 0.7-12-2.4-5.8 0.1-12.2-6-19.7-2.3-11.6-4.4-6.6-1.8-7.6-0.4-22 2.6-7.6-4.4 0.8-1.4 1.6-7.1 1.2-3 7.1-6.8 2-2.8 2.7-7.8 4.2-7.7 5.7-16.1 2.7-4.7 3-3 2.5-1.7 2.2-1.1 1.6-1.4 0.6-3 1.2-2.8 5.1-4 1.2-3 0.6-10.1 0.9-2.8 2.7-2.6 11.3-13.2 5.8 1.9 4 3.5 2.7 6.3 1 7.6 4.5 5.4 11.9 3.5 4.3 3.6 3.2 5 2 4 0.1 4 1.2 3.3 4.3 0.8 5.4 3.5 0 1.4z"
     id="TWN1169"
     name="Changhua" />
  <path
     d="m 499.6,893.2 -1.8,1.4 -0.4,-1.1 2.4,-3.1 0.9,-2.4 1.1,-1.5 0.6,0.5 0.1,1.1 -1.4,2 z m 2.2,-12.6 -0.7,-0.7 2,-3.8 0.9,-0.4 -0.5,1.9 z m 4.9,-9 -0.1,-4.4 0.5,0.4 0.1,2.9 z m 1.4,-9.7 -0.8,1.6 -0.5,-2 z m -1.3,-6.1 -0.5,1.3 -1.3,-2.1 z m 159.7,-50.1 6.1,0.7 6.8,2.6 4.1,1.2 5.1,2.8 -0.3,5.3 -3,5.1 1.2,4.8 2.7,6.5 0.4,5.9 1.1,3.8 7.6,1.4 25.6,0.2 0.9,0.2 -18.5,9.4 -8.5,6.8 -3.6,6.8 -4.2,5 -7.7,4.3 -7.9,6.1 -4.5,5.4 -12.3,7.3 -5.8,0.6 -6.9,-0.7 -3.6,3.5 -0.1,5 1.4,4.5 1,6.7 -8.4,-1 -3.7,-1.1 -5,0.6 -5.3,2.4 h -3.8 l -4.5,-3.5 -1.6,-4.6 1.8,-14.2 -1,-7.5 -9.9,-10.1 -1.7,-5.1 -2.1,-4.2 -4,-2.4 -7.2,-2.4 -8.5,0.5 -15.2,2.8 -7.8,3.5 -6.1,4.6 -4.7,4.8 -6.6,5.1 -5.8,3.6 -2.5,4.9 -6.2,2.8 -7.2,-1.8 -8.9,-1.3 -5.2,-2 3.8,-0.3 3.3,-1.4 1.4,0.5 -0.9,-3.2 -2.2,1.6 -1.8,-0.5 -2.5,-0.1 v -3.3 l 2.4,-5.6 3.7,-0.3 5.4,0.1 -3.7,-10.5 -4.1,-8 1.9,-3.7 v -1.9 l -3.1,-1.5 0.4,-1.8 1.8,-2 0.9,-2.6 4,-5.2 -8.5,0.5 -0.2,-8.7 11.6,-1.4 8.3,4.7 6.1,0.1 3.9,-3.2 1.7,-4.9 2.1,-3 5.3,-0.8 7,-5.7 4.4,-2.4 3.8,-3.8 16.3,-9.4 7.2,-2 12.6,-2.3 6.9,-0.4 5.3,4.6 5,5.9 12.6,4.6 3.7,-0.5 8.3,-2.4 4.7,3.4 2.4,3.9 6.3,-0.6 11.7,-2.4 4,-1.3 v -3.4 l 0.3,-5 z m -92.7,30.8 -3.8,4.1 0.9,5.6 6.1,2.4 7,4.5 7.3,1.7 6.8,-2.7 4.5,-0.6 3,-2.2 -2.5,-6.8 -2.5,-4 -4.1,-2.2 -5.6,-2.1 -7.8,0.7 z"
     id="TWN1170"
     name="Chiayi"
     sodipodi:nodetypes="ccccccccccccccccccccccccccccccccccccccccccccccccccccccccccccccccccccccccccccccccccccccccccccccccccccccccccccccccccccccccccccccccccccccccccccccccccc" />
  <path
     d="M573.8 836.5l9.3-1.6 7.8-0.7 5.6 2.1 4.1 2.2 2.5 4 2.5 6.8-3 2.2-4.5 0.6-6.8 2.7-7.3-1.7-7-4.5-6.1-2.4-0.9-5.6 3.8-4.1z"
     id="TWN1171"
     name="Chiayi City" />
  <path
     d="M935.4 601.5l0.6 0.8 1.6 2.9 0.2 1.1-1.4 2.4-5.8 5.7-6.2 8.6-4.7 3.7-1.4 2 0.7 2.1-0.9 1.5-6.6 5.1-2.5 2.4-2.8 6-2.9 12.2-7.4 10.9-1.5 4.4 0.2 4.7 1.8 5.2 1.5 2.3 1.3 1 0.8 1.4 0.1 3.2-1.1 3.6-3.7 5.8-0.7 3.5-0.4 6.4-3.2 16.3-6.4 17-8 40.1-4.8 9.8-11 64.1-3.5-1-10.8 5.2-3.9 5.4 1.7 6.9 0.6 6.9-3.6 6.9-3.4 5.2-2.7 6.6-2.4 8.4-3.7 7.7-4.8 13.2-3.1 6.1 0.1 6.7-0.9 6.2-6.5 3.7-8.2-1.1-11.7-9.7-9.2-16-5.7-1.5-6.3-0.9-5-4.8-6.1-2.9-7.8-2.8-5-8.1-1.2-7.4-0.3-2.5-2.8-7.6-6.3-5.2-5.6-3.6-1-4 1.4-3.2 5.6-2.4 3-5-1.9-5.8 6-3.5 3.1-2.8-1.7-6.2 1.5-2.7 1.5-4 5.2-3.9 7.4-1.6 7.4-0.3 5.3-4.7 1.3-8.5 4-5.2 7.6-2.8 4.5-3.1 1.6-5.1 3.2-12.6 1.2-8.4-0.9-7.2-1.2-5.4-3.2-4.1-2.1-4 5.7-9.4 0.2-3.7 2.5-7 3.9-8.5 3-8.8 1.6-9.9 0.6-7.6-1.8-4.5-2-3.3 2.3-7.6 5.1-10.7 8-10.4 0.3-3.9-1.5-4.5-5.2-3.4-2.9-3.1-0.2-9.9 3.7-2.9 6.6-2.2 5.2-2.4-0.2-3.7-1.4-6.2 2.8-2 1.2-2.1 3.4-1.7 3.1-3.8 1.3-5.1 3-5 7.5-4.7 2.4-6.2 0.4-4.2 4.7-4.9 2.5 2.1 6.5 3.1 15 3.8 8.3 3.2 6.5 0 4.9-4.5 2.4-6 3.8-0.9 18.5 11.1 11.1 1.7 1.1 0z"
     id="TWN1172"
     name="Hualien" />
  <path
     d="M825 627.6l1.4 6.2 0.2 3.7-5.2 2.4-6.6 2.2-3.7 2.9 0.2 9.9 2.9 3.1 5.2 3.4 1.5 4.5-0.3 3.9-8 10.4-5.1 10.7-2.3 7.6 2 3.3 1.8 4.5-0.6 7.6-1.6 9.9-3 8.8-3.9 8.5-2.5 7-0.2 3.7-5.7 9.4 2.1 4 3.2 4.1 1.2 5.4 0.9 7.2-1.2 8.4-3.2 12.6-1.6 5.1-4.5 3.1-7.6 2.8-4 5.2-1.3 8.5-5.3 4.7-7.4 0.3-7.4 1.6-5.2 3.9-1.5 4-1.5 2.7 1.7 6.2-3.1 2.8-6 3.5-0.7-2-4.2-5.9-5.8-2.2-4.3-1-0.9-0.2-25.6-0.2-7.6-1.4-1.1-3.8-0.4-5.9-2.7-6.5-1.2-4.8 3-5.1 0.3-5.3-5.1-2.8-4.1-1.2-6.8-2.6-6.1-0.7-2.6-3.5-8.2 0.9-6.8 2-5.8-2.5-4-4.7 0.9-5.7 1.9-5.2-1-7.7 1-7.2 2-4.7-1.9-7.2 2.4-1.6 2.5-2.3 3.8-1.5 1-3.5-5.6-2.9-3.9-1.4-3.6-3.3-2.1-6.3 0.9-13.4 1.2-6.6 0.1-5.7 1.6-5.4 2-4.6-0.5-4 1.2-2.9 4.3-1.6-0.1-3.6 4.3 0.2 17.9 2.5 4.2-0.6 5-4.8 7.6-14.4 3.7-8.5 6.4-3 10.1 1.4 6-0.2 5.8-7.7 3-1.9 8.9 6.7 3.5-0.9 2.6-5.5 4.7-3.9 6.6 0.1 5-1.9 7.9-7.6 5.1-2.9 4.4-0.8 8.8-4.7 6.2-0.2 6.3-1 11.1-4.4 4.6-0.3 4.7 1 13.4 1.3z"
     id="TWN1173"
     name="Nantou" />
  <path
     d="M803.7 570.5l0.8-0.6 10.6-1 2.8 0.8 3.6 1-0.6 5.5 1.4 3.8 4.9 1 4.4 2.6 3.7 2.5 4-0.6 4.7-2.3 4.9 0 5.9 4.7-4.7 4.9-0.4 4.2-2.4 6.2-7.5 4.7-3 5-1.3 5.1-3.1 3.8-3.4 1.7-1.2 2.1-2.8 2-13.4-1.3-4.7-1-4.6 0.3-11.1 4.4-6.3 1-6.2 0.2-8.8 4.7-4.4 0.8-5.1 2.9-7.9 7.6-5 1.9-6.6-0.1-4.7 3.9-2.6 5.5-3.5 0.9-8.9-6.7-3 1.9-5.8 7.7-6 0.2-10.1-1.4-6.4 3-3.7 8.5-7.6 14.4-5 4.8-4.2 0.6-17.9-2.5-4.3-0.2 0-1.4-5.4-3.5-4.3-0.8-1.2-3.3-0.1-4-2-4-3.2-5-4.3-3.6-11.9-3.5-4.5-5.4-1-7.6-2.7-6.3-4-3.5-5.8-1.9 0.6-0.8 0.8-3.3 3.3-2.7 2.2-6.5 2.7-12.3 9.3-16.1 2.8-9.9 3.4-5.5 13.3-14.8 9.2 14.3 4.7 5 6.3 5.5 15.1 11.1 7.3 3.6 6.6 1.2 11.6 6.7 12.1-0.7 5.2-2.8 0.9-7.4 5.5-3.3 9.9 0.8 6 2.4 5 5.6 5.4 2.1 8.9-4.7 6.8-2.9 11.6-9.2 5.9-3.2 4.6-4.4 4.2-3 5.3 0.1 4.9-2 1.8-5.6 3.7-2.6z"
     id="TWN1174"
     name="Taichung City" />
  <path
     d="M642 760.2l1.9 7.2-2 4.7-1 7.2 1 7.7-1.9 5.2-0.9 5.7 4 4.7 5.8 2.5 6.8-2 8.2-0.9 2.6 3.5-0.5 0-0.3 5 0 3.4-4 1.3-11.7 2.4-6.3 0.6-2.4-3.9-4.7-3.4-8.3 2.4-3.7 0.5-12.6-4.6-5-5.9-5.3-4.6-6.9 0.4-12.6 2.3-7.2 2-16.3 9.4-3.8 3.8-4.4 2.4-7 5.7-5.3 0.8-2.1 3-1.7 4.9-3.9 3.2-6.1-0.1-8.3-4.7-11.6 1.4 4.6-5.2-0.2-16.4 0.7-12.3 2.8-9.8 4.3-7.7 1.3-10 2.3-8.8 1.3-3 6.1-8.1 1.1-2.8 0.7-1.5 5.6-4.3 0.8-1.6 7.6 4.4 22-2.6 7.6 0.4 6.6 1.8 11.6 4.4 19.7 2.3 12.2 6 5.8-0.1 12 2.4 1-0.7z"
     id="TWN1176"
     name="Yunlin" />
  <path
     d="M889.2 1263l-5.5 1.7-7.3-2.9-6.8-4.8-3.9-3.7 1.2-2.7-0.1-2.5-1-2.4-1.7-2.1 19.5 0 0 1.8-1.3 3.5-0.4 2.9 0.9 2.5 4.7 3.5 2 2.5-0.3 2.7z m-24-177.6l-0.1 1.1-3.4-0.4-0.4-0.6-2.7-1-2.8-4.9-1.4-4.3 0.6-0.6 10-0.7 1.1 0.6 0.8 2-0.8 3.9-0.9 1.6-0.4 1.7 0.4 1.6z m-163.1 114.1l-4.5 0.3-10.2-4.7-4.6-4.9-3.2-5.9-0.6-6.1 0.1-5.7-3.1-4.4-3.4-1.7-2.7-3.9 0.5-4.5 2.1-3.9 5.3-3.2 2.5-3.8-4.6-5.6-2.6-5 0-5.4-1.1-7.1-2-6.1-1.2-6.5 0.8-14.7 3-7.5 3.7-6.6 2.4-6.6 5.4-4.5 7.6-1.6 4.8-2.7 9.8-4.1 2-5 0.1-5.2 2.8-13.8-5.5-3.6-5.4-1.3-0.7-4.9-3.5-6.6 3.9-0.5-1.2-4.9-6.2-6.4-3-4.6-1.3-8.1 2.3-9.8 8.5-7.2 4.3-5.9 0.1-11.2 3-13.2-2.1-9.9 0.8-6.9 7.4-4 2.7-4.9-2.3-6 0.9-5.7 7.8-5.1 4-3.9 6.4-4.1 15.6-3.8 1.2 7.4 5 8.1 7.8 2.8 6.1 2.9 5 4.8 6.3 0.9 5.7 1.5 9.2 16 11.7 9.7 8.2 1.1 6.5-3.7 0.9-6.2-0.1-6.7 3.1-6.1 4.8-13.2 3.7-7.7 2.4-8.4 2.7-6.6 3.4-5.2 3.6-6.9-0.6-6.9-1.7-6.9 3.9-5.4 10.8-5.2 3.5 1-4.6 26.4-2.2 4.9-7.1 9.4-2.6 4.9-2.1 6.1-1.5 11.4 0.2 10.2-1 9.7-4.9 9.9-2.1 2.1-4.7 3.5-2.2 2.2-1 2.3-1.7 5.8-4.8 8.4-2.9 13.1-2.1 5.9-10.3 14.8-1.3 2.7-13.9 11.8-3.3 3.8-0.4 2.7 0.6 6.2-0.2 2.8-1.2 3.2-2.2 3.5-4.7 6.1-4.7 4.5-16.1 10.7-10.8 11.9-2.7 1.4-2.1 2.7-5.2 13.5-2.6 5-8 10-3.3 6-1.9 12.3-4.8 16.8-9.5 16.7-1.4 5.7-1.7 16.1 0.3 14.7z"
     id="TWN1177"
     name="Taitung" />
  <path
     d="m 312.37499,966.67497 -2.7,1.35 -1.95,-2.25 -2.25,-7.05 1.5,-1.8 5.7,-1.95 4.05,1.05 0.15,3.15 -0.3,2.4 -1.8,1.8 z m -1.8,-18 -2.55,4.65 -3.3,-0.9 -3,-3.75 -0.45,-3.75 1.8,-1.65 4.8,0.75 z m 73.2,-4.8 -0.6,0.15 -1.8,-2.25 0.45,-0.9 3.75,-0.3 1.2,3 z m 21,-6.9 0.45,0.3 h 3.45 v 1.95 l -1.65,2.25 -1.05,2.7 -1.65,-4.2 z m -50.25,-44.4 -2.55,0.15 -4.5,2.7 -0.6,-0.6 0.6,-1.95 1.65,-2.25 1.05,-0.9 2.4,-0.45 2.25,1.35 z m -12.6,-10.05 0.15,3.45 0.75,2.4 2.1,1.8 -0.9,2.4 -1.8,1.8 0.9,2.85 -2.25,0.9 -4.65,-0.45 -2.4,-1.05 2.1,-4.65 -0.3,-6.3 -1.35,0.9 -3,0.9 -0.9,-3.45 3.15,-7.65 2.4,-0.45 4.05,5.4 z m -74.25,-8.55 3.6,0.9 v 2.4 l -0.9,1.35 -3.15,0.9 -1.65,-1.65 z m 87.75,-37.2 -4.8,3.15 -3.15,0.9 -3.3,1.65 -1.95,-0.75 -0.45,-2.7 1.05,-0.9 2.7,0.75 6,-3 z m 29.25,-42 -0.9,1.95 6,-1.95 4.65,0.6 3.45,-0.3 2.4,-4.05 7.05,13.05 1.8,6 -0.75,4.5 -3,-3 -3.75,-2.55 -4.2,-0.75 -6,3.3 -4.2,0.45 -2.1,1.2 -1.05,2.25 -1.65,6.15 -1.05,1.8 -7.05,4.05 -7.2,1.05 -7.2,-2.85 -7.35,-7.35 1.95,-3.75 4.05,4.8 6,1.35 6.45,-1.8 5.25,-4.35 -3.6,-1.35 -3,-1.8 -2.25,-2.4 -2.1,-3.3 -1.2,2.1 -1.5,0.9 -0.45,-6 0.45,-6 h 2.7 l 3.15,0.75 11.1,-6.9 6.9,-2.4 z m -59.85,13.95 h -5.7 l 1.05,-3.15 1.8,-1.95 2.85,-0.75 3.75,-0.3 3.3,-1.35 0.9,-3 0.15,-7.2 4.8,-15.6 4.65,-4.5 6.3,5.4 -3.75,2.25 -2.55,5.4 -4.2,12.75 -0.15,3.3 1.05,3 -0.45,1.95 -4.5,0.75 -3.3,0.15 -2.25,0.45 -1.95,0.9 z m 50.7,-26.85 -3.3,1.05 -1.65,-2.25 -1.35,-5.25 -3,-4.35 -6.45,-6.45 8.25,-6.15 4.95,2.55 4.8,4.2 2.1,4.35 -3.75,3.6 1.5,5.25 z m 3.9,-45.6 -0.45,1.35 -1.95,-4.5 -0.3,-2.1 2.7,-2.25 2.4,-4.5 0.75,1.65 3.75,2.1 -0.6,2.7 -3.3,1.95 z"
     id="TWN3414"
     name="Penghu"
     style="stroke-width:3" />
  <path
     d="m 25.406875,611.12727 -7.8,2.25 -4.5,-1.8 7.5,-14.85 1.95,-2.1 3.15,-0.75 3.15,-0.15 3,2.1 2.4,2.7 v 4.65 l -2.1,3.15 -2.4,0.15 -1.65,1.8 -0.9,1.8 z m 82.500005,-40.2 7.05,18.9 -1.5,13.2 -5.85,6.9 -10.200005,-6.45 -7.5,-2.4 -12.15,1.2 -10.65,6.75 -5.85,9.15 -5.1,2.55 -5.85,-2.85 -4.05,-0.15 -3.6,-1.65 -1.8,-3.15 0.75,-1.05 3.15,-4.2 1.05,-1.8 0.3,-3.15 -0.15,-3.75 -1.05,-6.45 -2.7,-6.3 -0.3,-3.15 2.25,-1.35 11.4,-5.55 15,9.9 10.5,-1.35 1.65,-13.05 3.45,-8.25 11.25,-2.25 z m 403.94999,-206.55 -4.35,2.25 -1.95,-1.8 1.05,-4.8 3.6,-2.1 2.55,0.45 0.3,2.85 z"
     id="TWN3415"
     name="Kinmen"
     style="stroke-width:3" />
  <path
     d="m 353.92746,242.85919 -0.8,9.2 -7.6,8.4 -16.4,8 10,-22.4 10,2 0.4,-3.6 z m -47.2,-3.2 -8,8.4 -9.6,-13.6 14.4,-5.2 10.8,6 z m -8.39545,-103.61356 4,2 17.6,-10.4 h 11.2 v 7.2 l -11.2,12.8 -22,11.6 -6.8,1.20001 -10,-6.80001 -3.2,-9.6 2,-11.2 4.4,-8 4,-0.8 1.2,8.8 z m 85.2,-71.199997 -2.4,8.8 2.4,4.8 -5.6,-0.8 -6,-8.8 -4.4,-2.8 -9.2,5.2 -4,-1.6 -5.2,1.2 -6,6.8 -4.8,20 -4.4,-2.8 -2,-6 2,-17.2 2,-6.4 4.4,-2.8 10.8,-3.6 2.8,-3.6 8.8,-5.2 10,1.6 5.2,7.6 z m 519.2,-182.399993 -4.8,1.6 -4.4,-1.6 -5.6,5.2 -4.4,8.4 -1.2,-2 -4.8,-0.8 -7.2,-4 4.4,-6.8 -2,-5.6 3.6,-2.4 8.8,-7.2 10.4,6 2.4,5.2 z"
     id="TWN5128"
     name="Lienchiang"
     style="stroke-width:8"
     sodipodi:nodetypes="cccccccccccccccccccccccccccccccccccccccccccccccccccccccccccccccccc" />
  <circle
     cx="894"
     cy="358"
     id="0" />
  <circle
     cx="669.9"
     cy="526.1"
     id="1" />
  <circle
     cx="569.7"
     cy="1021.4"
     id="2" />
</svg>
