<?xml version="1.0" standalone="no"?>
<!DOCTYPE svg PUBLIC "-//W3C//DTD SVG 20010904//EN"
 "http://www.w3.org/TR/2001/REC-SVG-20010904/DTD/svg10.dtd">
<svg version="1.0" xmlns="http://www.w3.org/2000/svg"
 width="832.000000pt" height="841.000000pt" viewBox="0 0 832.000000 841.000000"
 preserveAspectRatio="xMidYMid meet">

<g transform="translate(0.000000,841.000000) scale(0.100000,-0.100000)"
fill="#000000" stroke="none">
<path d="M3870 8204 c-452 -41 -783 -111 -1132 -240 -1354 -502 -2334 -1683
-2572 -3099 -40 -236 -51 -379 -51 -665 0 -286 11 -429 51 -665 238 -1416
1218 -2597 2571 -3099 299 -110 592 -179 953 -223 203 -25 657 -25 860 0 361
44 653 113 955 224 1349 499 2332 1684 2569 3098 40 236 51 379 51 665 0 286
-11 429 -51 665 -188 1120 -848 2112 -1813 2724 -513 326 -1066 520 -1701 596
-128 16 -586 28 -690 19z m751 -43 c80 -11 186 -27 235 -36 1295 -241 2399
-1122 2927 -2335 234 -538 338 -1082 324 -1695 -14 -607 -142 -1123 -412
-1670 -203 -410 -455 -757 -786 -1080 -576 -563 -1296 -935 -2079 -1074 -275
-48 -371 -56 -710 -56 -339 0 -435 8 -710 56 -1123 199 -2120 888 -2712 1872
-253 421 -423 872 -507 1347 -48 275 -56 371 -56 710 0 339 8 435 56 710 199
1123 887 2120 1870 2710 496 298 1016 476 1594 545 197 23 199 23 520 20 232
-3 333 -8 446 -24z"/>
<path d="M3098 6568 c-25 -20 -39 -162 -47 -491 -7 -277 -9 -300 -28 -318 -19
-20 -138 -57 -315 -99 -91 -22 -97 -23 -122 -7 -14 10 -37 39 -51 66 -28 57
-34 60 -97 53 l-47 -5 -3 104 c-5 154 9 360 28 415 16 47 16 49 -5 65 -31 25
-118 52 -146 45 -14 -3 -30 -16 -36 -29 -13 -23 -27 -280 -28 -522 -1 -77 -5
-145 -9 -151 -21 -32 -237 -119 -324 -130 -97 -12 -102 -21 -67 -138 23 -77
46 -127 62 -138 6 -4 40 9 75 28 48 25 78 34 113 34 66 0 79 -7 79 -41 0 -68
-239 -398 -403 -558 -25 -24 -43 -50 -40 -57 5 -15 63 -34 102 -34 18 0 67 43
187 161 90 89 169 159 176 157 22 -8 30 -112 25 -345 -4 -198 -3 -224 12 -237
25 -23 87 -46 122 -46 l32 0 -7 128 c-9 166 16 653 35 683 5 8 38 16 83 20 89
7 106 18 106 70 0 45 -25 66 -107 93 -29 10 -56 22 -59 28 -4 5 -6 31 -6 56 2
62 45 107 124 126 40 9 74 -26 101 -104 15 -45 28 -66 41 -68 10 -2 48 10 85
26 36 17 85 33 107 37 54 8 121 -10 129 -35 15 -46 -86 -190 -265 -375 -74
-77 -164 -173 -200 -214 -35 -40 -84 -84 -107 -98 -71 -41 -52 -68 57 -80 l61
-6 238 237 c168 168 245 237 258 234 20 -4 19 2 52 -288 36 -307 35 -302 13
-330 -19 -24 -26 -25 -149 -28 -70 -2 -153 1 -183 6 -30 6 -58 7 -62 3 -22
-21 88 -107 217 -167 89 -43 346 -100 376 -84 34 19 37 39 18 114 -24 93 -69
489 -85 751 -7 112 0 126 51 102 20 -10 60 -39 88 -65 29 -26 74 -65 100 -86
95 -76 130 -127 142 -208 4 -26 12 -52 19 -57 10 -8 230 -50 343 -65 52 -7
169 8 223 30 32 13 40 21 38 37 -5 34 -98 91 -256 157 -265 111 -449 224 -578
354 -126 128 -170 241 -112 291 41 36 133 65 222 72 67 5 84 10 104 30 21 21
23 30 18 66 -9 52 -52 132 -88 162 -32 27 -32 27 -181 -35 -42 -17 -84 -29
-93 -26 -14 5 -15 41 -11 314 2 176 8 320 14 338 13 39 7 49 -40 69 -44 18
-97 20 -119 3z"/>
<path d="M4555 4544 c-16 -3 -110 -21 -207 -40 -179 -34 -302 -43 -339 -23
-18 9 -19 8 -13 -18 11 -43 32 -80 56 -97 26 -18 100 -21 178 -6 29 6 55 8 58
5 7 -7 -197 -1029 -229 -1143 -80 -282 -169 -376 -359 -377 -68 0 -93 5 -125
22 -72 38 -125 114 -125 178 0 14 -4 25 -8 25 -4 0 -29 -21 -55 -46 -98 -97
-71 -186 81 -261 71 -36 81 -38 166 -37 151 1 273 61 404 199 116 122 195 278
253 500 15 60 66 303 113 539 47 236 88 431 92 435 3 3 60 6 127 6 120 0 134
-3 209 -43 10 -5 -12 68 -33 109 -11 22 -32 43 -53 53 -37 17 -138 28 -191 20z"/>
<path d="M5430 4483 c-65 -50 -220 -124 -273 -130 l-46 -5 -12 -56 c-15 -76
-2 -107 44 -98 41 8 146 79 217 148 49 46 129 163 119 172 -2 2 -24 -12 -49
-31z"/>
<path d="M6534 4136 c-134 -42 -280 -216 -454 -541 -40 -75 -74 -134 -77 -132
-2 3 5 103 17 223 27 291 26 318 -5 349 -13 14 -34 25 -46 25 -20 0 -138 -29
-147 -36 -2 -1 2 -13 9 -25 32 -61 30 -91 -8 -154 -108 -177 -283 -391 -407
-496 -100 -85 -172 -122 -238 -123 -43 -1 -53 3 -74 27 -35 40 -32 102 17 346
23 117 41 240 42 284 2 72 0 80 -22 98 -26 21 -55 20 -143 -2 -35 -9 -37 -11
-28 -35 22 -56 11 -161 -46 -440 -40 -199 -28 -280 50 -352 125 -115 317 -64
534 142 83 79 204 225 282 342 29 41 54 73 57 71 2 -3 -8 -124 -23 -269 -24
-224 -26 -269 -15 -295 17 -42 59 -59 118 -47 45 9 45 9 47 54 3 56 50 167
157 365 150 279 263 425 329 425 70 0 69 -44 -14 -452 -35 -174 -61 -328 -59
-343 10 -47 55 -64 132 -49 22 5 31 12 31 26 0 27 50 122 152 287 228 371 394
560 465 534 40 -15 40 -14 -14 -288 -29 -144 -37 -204 -37 -300 -1 -109 1
-125 24 -170 48 -97 162 -121 285 -60 148 72 344 317 535 669 42 76 43 79 24
93 -50 37 -49 38 -104 -60 -75 -131 -172 -279 -246 -373 -143 -183 -268 -249
-321 -167 -27 40 -19 141 27 378 52 264 59 339 36 399 -22 57 -57 80 -121 80
-154 -1 -367 -227 -571 -607 -38 -70 -70 -124 -72 -119 -1 4 16 105 39 223 65
340 64 448 -5 490 -36 22 -55 23 -112 5z"/>
</g>
</svg>
